<svg xmlns="http://www.w3.org/2000/svg" viewBox="0 0 358.62 303.21"><defs><style>.cls-1{fill:#ffce54;}.cls-2{fill:#f6bb42;}.cls-3{fill:#dedde0;}.cls-4{fill:#acabb1;}.cls-5{fill:#ffda44;}.cls-6{fill:#ff9811;}.cls-7{fill:#50412e;}.cls-8{fill:#786145;}.cls-9{fill:#ed5564;}</style></defs><g id="Layer_2" data-name="Layer 2"><g id="Layer_1-2" data-name="Layer 1"><path class="cls-1" d="M272.4,266.7a24.37,24.37,0,0,1-2.8,1.4L276,281c17.2-8.6,32.3-21.5,44.8-38.4,9.9-13.3,18.2-29.1,24.7-46.9a233.45,233.45,0,0,0,13.1-56.6,7.18,7.18,0,0,0-3.8-6.9,7.35,7.35,0,0,0-7.9.8c-.4.3-44.5,35.3-78.6,28.6l-2.8,14.2,1.8.3Z"/><path class="cls-2" d="M353.1,170.6c-11.6,6.7-31.6,16.5-51.1,18.2l1.3,14.4c16-1.4,31.8-7.3,44.2-13.3C349.8,183.1,351.7,176.6,353.1,170.6Z"/><path class="cls-2" d="M55.3,208.5c-.1,15.9,1.8,29.1,6,40.5a68.63,68.63,0,0,0,21.4,30.3c9.9,8.1,22.4,13.9,38.2,17.9,15.5,3.9,33.9,5.9,56.2,6,30.9.2,56.9-2.8,77.2-9.2,17.9-5.6,32-13.8,41.8-24.6,18.2-19.9,18.4-44.1,18.5-58.5v-.1c.1-8.9-3.9-17.7-11.8-26.2-7-7.5-16.7-14.3-28.8-20.4-22.7-11.2-51.8-18.2-80.8-19.4.1-1.6.2-3.2.2-5,.3-10.8-1-17.3-4.2-20.9a9.55,9.55,0,0,0-7.3-3.4,9.7,9.7,0,0,0-1.7.1,13.65,13.65,0,0,1-2.6.1c-5.3,0-14-1.2-23.3-2.5-11.4-1.6-24.2-3.3-34.2-3.4s-16.1,1.5-19.6,5.3a11.6,11.6,0,0,0-3.2,8.5c.7,15.2-8.1,25-18.3,36.2C68,172.1,55.5,186,55.3,208.5Z"/><path class="cls-1" d="M56.2,78.7A79.3,79.3,0,1,0,136.1,0,79.43,79.43,0,0,0,56.2,78.7Z"/><path d="M114.1,57.5A7.25,7.25,0,1,1,114,72a7.25,7.25,0,0,1,.1-14.5Z"/><polygon class="cls-3" points="20.2 278.1 22.1 303 72 303 72 278.1 20.2 278.1"/><polygon class="cls-3" points="72 173.4 11.8 173.4 13.8 198.3 72 198.3 72 173.4"/><polygon class="cls-4" points="72 278.1 72 303 121.8 303 123.8 278.1 72 278.1"/><polygon class="cls-4" points="72 173.4 72 198.3 130.1 198.3 132.1 173.4 72 173.4"/><path class="cls-5" d="M72,263.1c-12.2,0-22.1-11.2-22.1-24.9s9.9-24.9,22.1-24.9V198.4H5.6l5.5,79.7H72Z"/><path class="cls-6" d="M72,198.3v14.9c12.2,0,22.1,11.2,22.1,24.9S84.2,263,72,263v15.1h60.9l5.5-79.7H72Z"/><path class="cls-7" d="M94.1,238.2c0-13.8-9.9-24.9-22.1-24.9v49.8C84.2,263.1,94.1,251.9,94.1,238.2Z"/><path class="cls-8" d="M49.8,238.2c0,13.8,9.9,24.9,22.1,24.9V213.3C59.7,213.3,49.8,224.4,49.8,238.2Z"/><polygon class="cls-7" points="132.1 173.4 143.9 173.4 143.9 153.5 121.8 153.5 121.8 133.5 22.1 133.5 22.1 153.5 0 153.5 0 173.4 11.8 173.4 72 173.4 132.1 173.4"/><path class="cls-1" d="M119.3,231.8c2.4,9.3,8.5,16.7,17.8,21.4,7.4,3.7,16.6,5.7,27.3,6h3.5c60.3.5,92.1-20.5,93.5-21.4a6.87,6.87,0,0,0,1.9-1.9,7.8,7.8,0,0,0,.9-7.1c-1.3-3.5-4.4-5.6-13.3-8.8-4.7-1.7-11-3.8-18.8-6.1-3.7-1.1-7.5-2.2-10.9-3.1l3.1-2.1a7.16,7.16,0,0,0,3.1-7.5,7.39,7.39,0,0,0-5.8-5.7c-1.8-.3-45.4-8.2-65.1-8.4a41.57,41.57,0,0,0-7.9.6,39.12,39.12,0,0,0-25,17.2A34.67,34.67,0,0,0,119.3,231.8Z"/><path class="cls-9" d="M94.68,115.06,84.29,88.53a7.2,7.2,0,0,0-5.6-4.48L48.75,79.38a7.19,7.19,0,0,0-5.58,1.5,7.28,7.28,0,0,0-2.78,5l-1.56,18.57a7.26,7.26,0,0,0,5.82,7.75l20.05,3.9,20.59,8.33a7.2,7.2,0,0,0,9.39-9.41Z"/></g></g></svg>